
<svg width="24" height="24" viewBox="0 0 24 24" fill="none" xmlns="http://www.w3.org/2000/svg">
<rect width="24" height="24" rx="4" fill="#5A298B"/>
<g clip-path="url(#clip0_248_5001)">
<path d="M16.3492 8.34912C18.3302 8.34912 19.8482 9.8675 19.8482 11.9995C19.848 14.1313 18.33 15.5747 16.3492 15.5747C15.1668 15.5746 14.3828 15.141 13.8668 14.4829V18.3208H12.4293V8.49561H13.8668V9.44092C14.3828 8.78284 15.1668 8.3492 16.3492 8.34912ZM11.5709 15.4292H10.1266V14.5552C9.89503 14.9098 9.23359 15.5726 7.94981 15.5728C6.04757 15.5728 5.03774 14.3883 5.0377 12.7036L5.04063 12.2095C5.25105 12.0612 5.44973 11.8944 5.63242 11.7114C5.97493 11.3708 6.25961 10.979 6.47715 10.5503V12.3999C6.47715 13.5493 7.10952 14.2124 8.17637 14.2124C9.27319 14.2123 10.1363 13.5493 10.1363 12.3999V8.49268H11.5709V15.4292ZM16.1764 9.63525C14.8341 9.63757 13.8756 10.7203 13.8756 11.9995C13.8758 13.2785 14.8412 14.2886 16.1764 14.2886C17.5182 14.2884 18.4111 13.2761 18.4137 11.9995C18.4137 10.7203 17.5205 9.63527 16.1783 9.63525H16.1764ZM6.4752 8.49463C6.4752 9.08779 6.35694 9.67436 6.12559 10.2212C5.89652 10.768 5.55874 11.2641 5.13535 11.6812C4.27215 12.5293 3.11033 13.0044 1.9 13.0044V11.6147C2.73774 11.6124 3.54122 11.2833 4.13828 10.7017C4.42985 10.412 4.66318 10.0686 4.82285 9.69092C4.98253 9.31086 5.06602 8.90481 5.06602 8.49463H6.4752Z" fill="white"/>
</g>
<defs>
<clipPath id="clip0_248_5001">
<rect width="18.6" height="13.392" fill="white" transform="translate(1.9 5.6001)"/>
</clipPath>
</defs>
</svg>
